<?xml version="1.0"?>
<svg xmlns="http://www.w3.org/2000/svg" height="512px" viewBox="0 0 512.00033 512" width="512px"><g><path d="m217.019531 375.585938h-202.035156c-8.277344 0-14.984375-6.710938-14.984375-14.984376v-345.617187c0-8.277344 6.707031-14.984375 14.984375-14.984375h345.617187c8.273438 0 14.984376 6.707031 14.984376 14.984375v202.03125c43.074218 30.136719 60.339843 86.167969 40.59375 135.59375l82.113281 82.113281c41.917969 41.921875-21.828125 105.308594-63.570313 63.570313l-82.113281-82.113281c-49.425781 19.742187-105.460937 2.480468-135.589844-40.59375zm226.703125 46.945312-21.191406 21.191406 33.378906 33.378906c14.140625 14.140626 34.910156-7.476562 21.191406-21.191406zm-42.378906.003906 21.191406-21.191406-21.726562-21.726562c-6.101563 7.957031-13.234375 15.09375-21.191406 21.191406zm-55.726562-220.464844v-172.101562h-86.195313v83.96875c0 10.761719-11.476563 19.050781-22.699219 12.84375l-48.929687-24.773438-49.917969 25.273438c-10.054688 5.082031-21.6875-2.449219-21.675781-13.34375l-.035157-83.96875h-86.195312v315.648438h172.101562c-28.664062-88.1875 55.359376-172.210938 143.546876-143.546876zm-94.558594 48.988282c-32.765625 32.765625-32.765625 85.898437 0 118.664062s85.898437 32.765625 118.664062 0 32.765625-85.898437 0-118.664062-85.898437-32.765625-118.664062 0zm-21.601563-221.089844h-83.328125v59.628906c49.589844-25.109375 33.601563-25.179687 83.324219 0v-59.628906zm0 0" fill-rule="evenodd" data-original="#000000" class="active-path" data-old_color="#000000" fill="#D3D6D8"/></g> </svg>
