<?xml version="1.0"?>
<svg xmlns="http://www.w3.org/2000/svg" height="512px" viewBox="0 0 512 512" width="512px"><g><path d="m316.972656 0c-107.539062 0-195.03125 87.488281-195.03125 195.027344 0 37.5 10.648438 72.554687 29.066406 102.320312l-151.007812 151.007813 63.644531 63.644531 151.007813-151.007812c29.765625 18.417968 64.820312 29.066406 102.320312 29.066406 107.539063 0 195.027344-87.492188 195.027344-195.03125 0-107.539063-87.488281-195.027344-195.027344-195.027344zm-274.539062 448.355469 73.296875-73.296875 21.210937 21.210937-73.296875 73.296875zm115.726562-73.300781-21.214844-21.214844 31.988282-31.984375c6.519531 7.597656 13.613281 14.691406 21.210937 21.210937zm158.8125-15c-90.996094 0-165.027344-74.03125-165.027344-165.027344 0-90.992188 74.03125-165.023438 165.027344-165.023438 90.992188 0 165.023438 74.03125 165.023438 165.023438 0 90.996094-74.03125 165.027344-165.023438 165.027344zm0 0" data-original="#000000" class="active-path" data-old_color="#000000" fill="#D3D6D8"/><path d="m211.957031 300.042969h210.03125v-210.03125h-210.03125zm90.011719-180.023438h30.003906v30.003907h-30.003906zm-60.007812 0h30.003906v60.007813h90.011718v-60.007813h30.003907v150.019531h-150.019531zm0 0" data-original="#000000" class="active-path" data-old_color="#000000" fill="#D3D6D8"/></g> </svg>
