<?xml version="1.0"?>
<svg xmlns="http://www.w3.org/2000/svg" height="512px" viewBox="0 -52 482.8653 482" width="512px"><g><path d="m161.28125 144.433594h216c8.835938 0 16-7.164063 16-16v-24c0-13.253906-10.746094-24-24-24h-50.984375l-36.441406-75.480469c-1.335938-2.761719-4.132813-4.519531-7.199219-4.519531h-25.375c-2.402344 0-4.679688 1.078125-6.199219 2.9375-1.519531 1.863281-2.121093 4.308594-1.640625 6.660156l14.078125 70.402344h-71.464843l-6.886719-41.3125c-.640625-3.859375-3.976563-6.6875-7.886719-6.6875h-24c-4.417969 0-8 3.582031-8 8v80c0 13.253906 10.742188 24 24 24zm-8-96h9.222656l6.886719 41.3125c.640625 3.855468 3.980469 6.683594 7.890625 6.6875h88c2.402344 0 4.675781-1.078125 6.195312-2.941406 1.519532-1.859376 2.125-4.304688 1.644532-6.660157l-14.082032-70.398437h10.59375l36.445313 75.480468c1.335937 2.761719 4.132813 4.515626 7.203125 4.519532h56c4.417969 0 8 3.582031 8 8v24h-216c-4.417969 0-8-3.582032-8-8zm0 0" data-original="#000000" class="active-path" data-old_color="#000000" fill="#FFFFFF"/><path d="m473.449219 144.320312c-5.976563-6.0625-14.136719-9.464843-22.648438-9.449218-8.5-.019532-16.648437 3.375-22.617187 9.425781l-93.839844 93.734375-.183594.175781c4.726563-9.914062 4.042969-21.558593-1.820312-30.847656-5.859375-9.292969-16.074219-14.925781-27.058594-14.925781h-168c-2.125 0-4.15625.84375-5.65625 2.34375l-27.769531 27.757812-19.648438-34.023437c-2.207031-3.824219-7.101562-5.136719-10.925781-2.925781l-69.28125 40c-3.828125 2.207031-5.136719 7.101562-2.929688 10.925781l80 138.5625c2.210938 3.824219 7.101563 5.136719 10.929688 2.925781l69.28125-40c3.824219-2.207031 5.136719-7.101562 2.925781-10.925781l-13.070312-22.640625h190.863281c10.605469-.023438 20.773438-4.230469 28.296875-11.703125l103.117187-103.203125c6.046876-5.964844 9.453126-14.109375 9.453126-22.601563 0-8.496093-3.40625-16.636719-9.453126-22.605469zm-382.519531 215.824219-72-124.703125 55.421874-32 72 124.703125zm371.148437-181.929687-103.117187 103.203125c-4.511719 4.476562-10.605469 6.996093-16.960938 7.015625h-200.097656l-29.75-51.5625 28.4375-28.4375h164.691406c8.835938 0 16 7.164062 16 16 0 8.835937-7.164062 16-16 16h-88v16h111.359375c6.386719.011718 12.515625-2.53125 17.015625-7.066406l93.863281-93.734376c2.972657-3.023437 7.039063-4.722656 11.28125-4.71875 6.480469-.023437 12.328125 3.875 14.804688 9.863282 2.472656 5.992187 1.082031 12.882812-3.527344 17.4375zm0 0" data-original="#000000" class="active-path" data-old_color="#000000" fill="#FFFFFF"/></g> </svg>
